<?xml version="1.0" standalone="no"?><!DOCTYPE svg PUBLIC "-//W3C//DTD SVG 1.1//EN" "http://www.w3.org/Graphics/SVG/1.1/DTD/svg11.dtd"><svg t="1718686117468" class="icon" viewBox="0 0 1024 1024" version="1.1" xmlns="http://www.w3.org/2000/svg" p-id="6623" width="128" height="128" xmlns:xlink="http://www.w3.org/1999/xlink"><path d="M256.032 128h512a213.344 213.344 0 0 1 213.344 213.344v85.344a42.656 42.656 0 0 1-85.312 0v-85.344a127.36 127.36 0 0 0-3.904-31.456L535.712 547.52a42.592 42.592 0 0 1-47.328 0L131.936 309.888a129.12 129.12 0 0 0-3.904 31.456V640a128 128 0 0 0 128 128h170.656a42.656 42.656 0 0 1 0 85.312H256.032a213.344 213.344 0 0 1-213.344-213.344v-298.656a213.344 213.344 0 0 1 213.344-213.344zM844.8 238.88a127.552 127.552 0 0 0-76.768-25.568h-512c-28.8 0-55.36 9.504-76.736 25.568l332.736 221.824L844.8 238.88z" p-id="6624" fill="#5048E5"></path><path d="M759.2 567.168a42.656 42.656 0 0 1 60.352 0l149.344 149.344a42.656 42.656 0 0 1 0 60.352l-149.344 149.344a42.656 42.656 0 1 1-60.352-60.352l76.512-76.512h-238.336a42.656 42.656 0 0 1 0-85.312h238.304l-76.48-76.48a42.656 42.656 0 0 1 0-60.352z" p-id="6625" fill="#5048E5"></path></svg>