<?xml version="1.0" standalone="no"?><!DOCTYPE svg PUBLIC "-//W3C//DTD SVG 1.1//EN" "http://www.w3.org/Graphics/SVG/1.1/DTD/svg11.dtd"><svg t="1718144568116" class="icon" viewBox="0 0 1024 1024" version="1.1" xmlns="http://www.w3.org/2000/svg" p-id="11067" xmlns:xlink="http://www.w3.org/1999/xlink" width="32" height="32"><path d="M982.769877 165.913743c-30.399088 28.031159-42.942712 42.494725-42.942712 42.494725s10.879674 218.169455-103.548893 386.164415-262.200134 268.791936-476.977691 290.039299c-214.713559 21.247363-354.613362-66.174015-354.613362-66.174015s93.885183-5.375839 153.787387-28.35115c59.838205-22.975311 145.915623-83.517494 145.915622-83.517494s-122.364329-37.822865-166.33101-80.381589c-43.902683-42.686719-54.910353-67.901963-54.910352-67.901963l120.828375-1.599952S76.877054 488.912053 40.782137 435.34566 0.01536 329.748828 0.01536 329.748828l92.861214 37.694869S15.694889 261.974861 4.687219 179.99332C-6.32045 98.01178 18.830795 53.917102 18.830795 53.917102S58.061618 127.962881 219.65677 209.944422c161.595152 81.981541 298.167055 77.245683 298.167055 77.245682S466.049379 105.883543 626.108577 25.501955c160.059198-80.381589 270.135896 55.166345 270.135896 55.166345s27.903163-7.67977 48.702539-15.423537c20.799376-7.67977 50.878474-21.439357 50.878473-21.439357l-49.278521 88.445346 75.965721-8.063758s-9.34372 13.695589-39.742808 41.726749z" fill="#ffffff" p-id="11068" data-spm-anchor-id="a313x.search_index.0.i20.2cc73a81P8NQqF" class="selected"></path></svg>