<?xml version="1.0" standalone="no"?><!DOCTYPE svg PUBLIC "-//W3C//DTD SVG 1.1//EN" "http://www.w3.org/Graphics/SVG/1.1/DTD/svg11.dtd"><svg t="1718144531495" class="icon" viewBox="0 0 1024 1024" version="1.1" xmlns="http://www.w3.org/2000/svg" p-id="10041" xmlns:xlink="http://www.w3.org/1999/xlink" width="32" height="32"><path d="M736.96 325.76C691.84 314.24 512 314.24 512 314.24s-179.84 0-224.96 11.52c-25.28 6.08-43.84 25.92-51.2 50.24C224 420.16 224 512 224 512s0 91.84 11.84 136c6.08 24.64 26.24 43.52 51.2 50.24 45.12 11.52 224.96 11.52 224.96 11.52s179.84 0 224.96-11.52c25.28-6.08 44.16-25.6 51.52-50.24C800 603.84 800 512 800 512s0-91.84-11.52-136c-6.4-24.64-26.24-43.2-51.52-50.24z m-282.56 271.04v-169.6L603.84 512l-149.44 84.8z" p-id="10042" data-spm-anchor-id="a313x.search_index.0.i17.2cc73a81P8NQqF" class="selected" fill="#ffffff"></path></svg>